<?xml version="1.0" encoding="utf-8"?>
<!-- Generator: Adobe Illustrator 19.0.0, SVG Export Plug-In . SVG Version: 6.00 Build 0)  -->
<svg version="1.1" id="Layer_1" xmlns="http://www.w3.org/2000/svg" xmlns:xlink="http://www.w3.org/1999/xlink" x="0px" y="0px"
	 viewBox="-49 140.4 512.6 512.6" style="enable-background:new -49 140.4 512.6 512.6;" xml:space="preserve">
<style type="text/css">
	.st0{fill:#EF6C00;}
</style>
<g>
	<g>
		<path class="st0" d="M428.4,140.4H-13.8c-19.8,0-34.9,15.1-34.9,34.9v302.5c0,19.8,15.1,34.9,34.9,34.9H184
			c7,0,11.6-4.7,11.6-11.6s-4.7-11.6-11.6-11.6H-13.8c-7,0-11.6-4.7-11.6-11.6V175.3c0-7,4.7-11.6,11.6-11.6h442.2
			c7,0,11.6,4.7,11.6,11.6v302.5c0,7-4.7,11.6-11.6,11.6h-18.6l3.5-3.5c3.5-4.7,3.5-11.6,0-15.1l-14-16.3l4.7-20.9
			c1.2-5.8-2.3-11.6-8.1-14l-19.8-7l-5.8-18.6c-2.3-5.8-8.1-9.3-14-8.1l-20.9,4.7l-15.1-14c-4.7-3.5-11.6-3.5-15.1,0l-16.3,14
			l-20.9-4.7c-5.8-1.2-11.6,2.3-14,8.1l-7,19.8l-18.6,5.8c-5.8,2.3-9.3,8.1-8.1,14l4.7,20.9l-14,15.1c-3.5,4.7-3.5,11.6,0,15.1
			l14,15.1l-4.7,20.9c-1.2,5.8,2.3,11.6,8.1,14l19.8,7l7,19.8c2.3,5.8,8.1,9.3,14,8.1l20.9-4.7l15.1,14c4.7,3.5,11.6,3.5,15.1,0
			l15.1-14l11.6,2.3V621l-30.3-15.1c-3.5-1.2-7-1.2-10.5,0l-29.1,16.3v-27.9c0-7-4.7-11.6-11.6-11.6s-11.6,4.7-11.6,11.6v46.5
			c0,3.5,2.3,8.1,5.8,10.5c3.5,2.3,8.1,2.3,11.6,0l41.9-20.9l41.9,20.9c0,1.2,1.2,1.2,3.5,1.2s4.7-1.2,5.8-1.2
			c3.5-2.3,5.8-5.8,5.8-10.5v-82.6c0-5.8-3.5-10.5-9.3-11.6l-26.8-5.8c-3.5-1.2-7,0-10.5,2.3l-12.8,11.6L298.1,543
			c-2.3-2.3-7-3.5-10.5-2.3l-16.3,3.5l-4.7-16.3c-1.2-3.5-3.5-5.8-7-7l-16.3-4.7l3.5-16.3c1.2-3.5,0-7-2.3-10.5l-11.6-12.8
			l11.6-12.8c2.3-2.3,3.5-7,2.3-10.5l-3.5-16.3l16.3-4.7c3.5-1.2,5.8-3.5,7-7l4.7-16.3l16.3,3.5c3.5,1.2,7,0,10.5-2.3l12.8-11.6
			l12.8,11.6c2.3,2.3,7,3.5,10.5,2.3l16.3-3.5l4.7,16.3c1.2,3.5,3.5,5.8,7,7l16.3,4.7l-3.5,16.3c-1.2,3.5,0,7,2.3,10.5l11.6,12.8
			l-11.6,12.8c-2.3,2.3-3.5,7-2.3,10.5l5.8,26.8c1.2,5.8,7,10.5,14,9.3c5.8-1.2,10.5-7,9.3-14l-2.3-9.3h26.8
			c19.8,0,34.9-15.1,34.9-34.9V175.3C463.3,155.5,448.2,140.4,428.4,140.4z"/>
	</g>
</g>
<g>
	<g>
		<path class="st0" d="M312,431.3c-25.6,0-46.5,20.9-46.5,46.5c0,25.6,20.9,46.5,46.5,46.5c25.6,0,46.5-20.9,46.5-46.5
			C358.6,452.3,337.6,431.3,312,431.3z M312,501.1c-12.8,0-23.3-10.5-23.3-23.3c0-12.8,10.5-23.3,23.3-23.3s23.3,10.5,23.3,23.3
			C335.3,490.7,324.8,501.1,312,501.1z"/>
	</g>
</g>
<g>
	<g>
		<path class="st0" d="M277.1,187H137.5c-7,0-11.6,4.7-11.6,11.6s4.7,11.6,11.6,11.6h139.6c7,0,11.6-4.7,11.6-11.6
			S284.1,187,277.1,187z"/>
	</g>
</g>
<g>
	<g>
		<path class="st0" d="M207.3,303.3H32.7c-7,0-11.6,4.7-11.6,11.6c0,7,4.7,11.6,11.6,11.6h174.5c7,0,11.6-4.7,11.6-11.6
			C218.9,308,214.3,303.3,207.3,303.3z"/>
	</g>
</g>
<g>
	<g>
		<path class="st0" d="M160.7,349.9h-128c-7,0-11.6,4.7-11.6,11.6c0,7,4.7,11.6,11.6,11.6h128c7,0,11.6-4.7,11.6-11.6
			C172.4,354.5,167.7,349.9,160.7,349.9z"/>
	</g>
</g>
<g>
	<g>
		<path class="st0" d="M242.2,233.5h-69.8c-7,0-11.6,4.7-11.6,11.6s4.7,11.6,11.6,11.6h69.8c7,0,11.6-4.7,11.6-11.6
			S249.2,233.5,242.2,233.5z"/>
	</g>
</g>
<g>
	<g>
		<path class="st0" d="M323.7,303.3h-69.8c-7,0-11.6,4.7-11.6,11.6c0,7,4.7,11.6,11.6,11.6h69.8c7,0,11.6-4.7,11.6-11.6
			C335.3,308,330.6,303.3,323.7,303.3z"/>
	</g>
</g>
<g>
	<g>
		<path class="st0" d="M125.8,431.3h-25.6c-3.5,0-5.8-1.2-8.1-3.5l-11.6-11.6c-14-14-36.1-14-48.9,0l-7,7c-4.7,4.7-4.7,11.6,0,16.3
			s11.6,4.7,16.3,0l7-7c4.7-4.7,11.6-4.7,16.3,0l11.6,11.6c7,7,15.1,10.5,24.4,10.5h25.6c7,0,11.6-4.7,11.6-11.6
			S132.8,431.3,125.8,431.3z"/>
	</g>
</g>
<g>
	<g>
		<path class="st0" d="M242.2,349.9h-34.9c-7,0-11.6,4.7-11.6,11.6c0,7,4.7,11.6,11.6,11.6h34.9c7,0,11.6-4.7,11.6-11.6
			C253.8,354.5,249.2,349.9,242.2,349.9z"/>
	</g>
</g>
</svg>
