<?xml version="1.0" encoding="iso-8859-1"?>
<!-- Generator: Adobe Illustrator 19.0.0, SVG Export Plug-In . SVG Version: 6.00 Build 0)  -->
<svg version="1.1" id="Layer_1" xmlns="http://www.w3.org/2000/svg" xmlns:xlink="http://www.w3.org/1999/xlink" x="0px" y="0px"
	 viewBox="0 0 380.82 380.82" style="enable-background:new 0 0 380.82 380.82;" xml:space="preserve">
<g>
	<g>
		<path d="M334.97,237.24c-6.181,0-8.93,0-15,0v-1.71c18.718-5.327,32.47-22.567,32.47-42.97v-29.782
			c0-0.006,0.001-0.013,0.001-0.019v-7.667c0-6.161-1.253-12.035-3.518-17.381c-6.799-16.052-22.703-27.311-41.166-27.311H280.01
			h-0.003c-0.001,0-0.002,0-0.003,0c-6.809,0.001-13.371,1.507-19.318,4.362C258.271,87.546,235.36,66.13,207.53,66.13h-33.86h-0.38
			c-27.83,0-50.741,21.415-53.157,48.633c-5.948-2.856-12.512-4.363-19.323-4.363H73.371h-0.308H73.06
			c-18.478,0-34.372,11.277-41.163,27.312c-4.052,9.565-3.516,11.312-3.516,54.848c0,20.211,13.59,37.656,32.47,42.987v1.693
			c-6.065,0-8.81,0-15,0C20.568,237.24,0,257.808,0,283.09v24.1c0,4.142,3.358,7.5,7.5,7.5c2.995,0,358.806,0,365.82,0
			c4.142,0,7.5-3.358,7.5-7.5v-24.1C380.82,257.808,360.252,237.24,334.97,237.24z M307.757,125.401L307.757,125.401
			c16.366-0.001,29.683,13.317,29.683,29.689v0.169h-12.574c-17.95,0-33.115-12.603-36.605-29.858H307.757z M260.911,132.355
			c3.363-2.838,7.321-4.886,11.48-5.966c-1.27,8.096-5.389,15.369-11.48,20.602V132.355z M260.91,164.908
			c8.383-4.257,15.234-10.752,19.926-18.598c9.354,14.511,25.65,23.949,44.03,23.949h12.574v22.301
			c0,15.148-11.409,27.673-26.083,29.455c-6.379,0.547-34.129,0.124-35.129-0.016c-13.169-1.66-23.535-11.903-25.549-24.824
			C257.745,187.471,260.91,176.757,260.91,164.908z M207.53,81.13c19.634,0,38.38,15.03,38.38,40.35h-17.27
			c-23.455,0-43.09-16.991-47.095-39.421c-0.055-0.31-0.118-0.617-0.167-0.929H207.53z M165.945,81.836
			c-1.701,17.263-13.732,32.509-31.035,37.756C134.91,100.589,148.528,85.226,165.945,81.836z M134.91,135.092
			c16.636-3.664,31.214-14.758,39.311-29.915c11.219,19.391,31.917,31.304,54.419,31.304h17.27v23.559h0
			c0,6.273,0.979,18.341-8.789,30.15l-0.001,0.002c-6.261,7.563-15.035,12.402-24.741,13.632c-0.001,0-0.003,0-0.004,0
			c-3.98,0.5-39.701,0.498-43.964-0.004c-9.674-1.224-18.451-6.064-24.712-13.629C133.024,177.286,134.91,167.052,134.91,135.092z
			 M247.387,223.107c-7.106-0.805-11.809-0.477-26.537-0.477v-5.193c6.377-1.635,12.357-4.43,17.683-8.24
			C240.613,214.379,243.63,219.091,247.387,223.107z M213.351,237.629h5.123c-7.779,29.056-48.366,28.202-56.071,0.196
			c-0.018-0.065-0.038-0.129-0.055-0.195h5.123c4.142,0,7.5-3.358,7.5-7.5v-11.063c8.316,0.174,21.731,0.188,30.88,0.001v11.061
			C205.851,234.271,209.209,237.629,213.351,237.629z M142.286,209.198c5.329,3.814,11.312,6.61,17.684,8.242v5.19
			c-15.544,0-19.597-0.308-26.55,0.483C137.184,219.095,140.205,214.382,142.286,209.198z M100.81,125.4
			c7.082,0,13.763,2.451,19.1,6.955v22.905c-21.266,0-35.25-13.266-38.595-29.86C81.315,125.4,100.81,125.4,100.81,125.4z
			 M65.447,126.395c-1.948,12.278-10.528,22.523-21.997,26.76C44.293,140.218,53.434,129.575,65.447,126.395z M43.38,192.56v-23.723
			c12.911-3.176,23.815-11.492,30.478-22.572c9.342,14.53,24.922,23.995,46.246,23.995c0.845,9.934,4.525,19.35,10.037,26.915
			c-2.014,12.921-12.382,23.164-25.604,24.831h-0.002c-0.069,0.008-0.165,0.016-0.251,0.024c-4.521,0.411-31.905,0.299-34.996-0.031
			C54.519,220.136,43.38,207.48,43.38,192.56z M84.9,299.69H15v-16.6c0-17.011,13.839-30.85,30.85-30.85h4.731
			c3.356,16.291,17.424,28.645,34.319,29.565V299.69z M98.03,241.856c-6.024,7.054-10.275,15.784-12.094,24.979
			c-4.584-0.226-8.757-1.783-12.213-4.368c-3.338-2.496-6.103-6.082-7.591-10.226h2.218c4.142,0,7.5-3.358,7.5-7.5v-7.537
			c7.593,0.111,15.076,0.146,22.18,0.029V241.856z M280.92,299.69H99.9v-22.24c0-10.447,4.089-20.263,11.052-27.529
			c11.354-11.881,23.357-12.463,36.036-12.354c8.52,49.904,78.747,47.442,86.844-0.001c12.655-0.115,24.667,0.458,36.043,12.364
			c6.983,7.286,11.045,17.115,11.045,27.52V299.69z M282.79,241.855v-4.608c23.44,0.073,14.782-0.004,22.18-0.006v7.5
			c0,4.142,3.358,7.5,7.5,7.5h2.219c-1.403,3.905-4.021,7.556-7.591,10.226c-3.387,2.533-7.554,4.139-12.214,4.368
			C293.133,257.974,289.038,249.172,282.79,241.855z M365.82,299.69h-69.9v-17.885c16.827-0.916,30.947-13.197,34.318-29.565h4.732
			c17.011,0,30.85,13.839,30.85,30.85V299.69z"/>
	</g>
</g>
<g>
</g>
<g>
</g>
<g>
</g>
<g>
</g>
<g>
</g>
<g>
</g>
<g>
</g>
<g>
</g>
<g>
</g>
<g>
</g>
<g>
</g>
<g>
</g>
<g>
</g>
<g>
</g>
<g>
</g>
</svg>
