<?xml version="1.0" encoding="utf-8"?>
<!-- Generator: Adobe Illustrator 16.0.0, SVG Export Plug-In . SVG Version: 6.00 Build 0)  -->
<!DOCTYPE svg PUBLIC "-//W3C//DTD SVG 1.1//EN" "http://www.w3.org/Graphics/SVG/1.1/DTD/svg11.dtd">
<svg version="1.1" id="Layer_1" xmlns="http://www.w3.org/2000/svg" xmlns:xlink="http://www.w3.org/1999/xlink" x="0px" y="0px"
	 width="464.655px" height="120.69px" viewBox="0 0 464.655 120.69" enable-background="new 0 0 464.655 120.69"
	 xml:space="preserve">
<polygon fill="#FFFFFF" points="2,2.956 50.385,2.956 50.385,18.235 18.234,18.235 18.234,51.496 46.242,51.496 46.242,66.779 
	18.234,66.779 18.234,100.04 50.385,100.04 50.385,116.274 2,116.274 "/>
<path fill="#FFFFFF" d="M113.025,90.968c0,3.5-0.663,6.843-1.992,10.025c-1.326,3.183-3.156,5.968-5.486,8.354
	c-2.336,2.388-5.069,4.298-8.198,5.731c-3.13,1.432-6.499,2.146-10.106,2.146c-3.076,0-6.207-0.423-9.389-1.271
	c-3.184-0.848-6.05-2.309-8.597-4.377c-2.546-2.068-4.642-4.801-6.284-8.198c-1.646-3.393-2.469-7.689-2.469-12.89V28.103
	c0-3.715,0.637-7.164,1.912-10.347c1.273-3.182,3.075-5.938,5.409-8.275c2.333-2.332,5.118-4.163,8.355-5.491
	C79.416,2.667,82.998,2,86.926,2c3.709,0,7.161,0.667,10.344,1.99c3.184,1.329,5.941,3.183,8.277,5.571
	c2.33,2.388,4.16,5.252,5.486,8.596c1.329,3.341,1.992,6.976,1.992,10.9v6.367H96.792v-5.411c0-3.185-0.903-5.942-2.705-8.275
	c-1.808-2.335-4.246-3.503-7.323-3.503c-4.031,0-6.709,1.247-8.035,3.74c-1.328,2.496-1.99,5.648-1.99,9.47v57.931
	c0,3.291,0.715,6.048,2.146,8.274c1.434,2.229,4.006,3.344,7.721,3.344c1.06,0,2.201-0.182,3.422-0.557
	c1.221-0.369,2.332-0.98,3.342-1.831c1.008-0.848,1.83-2.013,2.469-3.502c0.635-1.484,0.954-3.341,0.954-5.569v-5.57h16.233V90.968z
	"/>
<path fill="#FFFFFF" d="M124.961,2.956h24.031c9.23,0,16.287,2.574,21.168,7.719c4.879,5.146,7.32,12.334,7.32,21.564v53
	c0,10.609-2.573,18.436-7.718,23.473c-5.149,5.041-12.549,7.56-22.202,7.56h-22.6V2.956z M141.193,100.994h7.479
	c4.563,0,7.799-1.138,9.709-3.422c1.912-2.281,2.865-5.859,2.865-10.742V32.24c0-4.455-0.901-7.902-2.705-10.345
	c-1.806-2.439-5.094-3.66-9.869-3.66h-7.479V100.994z"/>
<path fill="#FFFFFF" d="M190.562,2.956h24.033c9.231,0,16.287,2.574,21.166,7.719c4.88,5.146,7.323,12.334,7.323,21.564v53
	c0,10.609-2.576,18.436-7.721,23.473c-5.148,5.041-12.547,7.56-22.202,7.56h-22.6V2.956z M206.796,100.994h7.479
	c4.561,0,7.799-1.138,9.709-3.422c1.912-2.281,2.864-5.859,2.864-10.742V32.24c0-4.455-0.903-7.902-2.704-10.345
	c-1.808-2.439-5.095-3.66-9.869-3.66h-7.479V100.994z"/>
<polygon fill="#FFFFFF" points="264.633,2.388 274.25,2.388 274.25,4.636 267.236,4.636 267.236,11.205 273.923,11.205 
	273.923,13.453 267.236,13.453 267.236,20.79 274.633,20.79 274.633,23.037 264.633,23.037 "/>
<path fill="#FFFFFF" d="M286.441,5.375c-0.492-0.296-1.047-0.528-1.656-0.696c-0.613-0.167-1.231-0.25-1.865-0.25
	c-0.965,0-1.746,0.292-2.338,0.872c-0.59,0.582-0.887,1.316-0.887,2.203c0,0.356,0.045,0.672,0.134,0.948
	c0.089,0.278,0.256,0.558,0.505,0.844c0.244,0.286,0.6,0.595,1.063,0.931s1.061,0.721,1.791,1.154
	c1.559,0.889,2.658,1.804,3.297,2.752c0.643,0.946,0.961,2.03,0.961,3.252c0,1.719-0.521,3.123-1.566,4.218
	c-1.047,1.095-2.525,1.642-4.438,1.642c-0.81,0-1.587-0.076-2.337-0.237c-0.75-0.156-1.41-0.374-1.983-0.649v-2.693
	c0.632,0.376,1.303,0.691,2.013,0.949c0.71,0.254,1.353,0.385,1.924,0.385c1.125,0,2.016-0.323,2.678-0.962
	c0.66-0.644,0.99-1.407,0.99-2.295c0-0.434-0.038-0.813-0.119-1.139c-0.078-0.326-0.226-0.642-0.443-0.947
	c-0.216-0.305-0.536-0.63-0.961-0.977c-0.424-0.344-0.98-0.725-1.672-1.138c-0.965-0.573-1.735-1.09-2.307-1.554
	c-0.574-0.462-1.026-0.92-1.361-1.376c-0.336-0.454-0.568-0.938-0.695-1.448c-0.127-0.515-0.191-1.116-0.191-1.805
	c0-1.638,0.541-2.91,1.626-3.817c1.085-0.908,2.456-1.361,4.112-1.361c0.652,0,1.316,0.065,1.996,0.193
	c0.682,0.13,1.26,0.292,1.732,0.487V5.375z"/>
<path fill="#FFFFFF" d="M302.714,22.624c-1.343,0.415-2.595,0.622-3.761,0.622c-1.576,0-2.957-0.278-4.14-0.828
	c-1.185-0.554-2.155-1.317-2.914-2.294s-1.321-2.101-1.688-3.373c-0.364-1.271-0.546-2.627-0.546-4.068
	c0-1.578,0.223-3.018,0.664-4.32c0.444-1.301,1.07-2.414,1.878-3.342c0.81-0.928,1.776-1.632,2.901-2.115
	c1.123-0.482,2.355-0.725,3.699-0.725c0.748,0,1.467,0.064,2.158,0.191c0.689,0.13,1.274,0.311,1.747,0.548v2.543
	c-1.087-0.689-2.377-1.034-3.878-1.034c-0.846,0-1.66,0.168-2.441,0.504c-0.777,0.334-1.467,0.833-2.067,1.492
	c-0.604,0.663-1.077,1.476-1.421,2.441c-0.346,0.967-0.519,2.063-0.519,3.286c0,2.739,0.556,4.9,1.669,6.477
	c1.116,1.581,2.771,2.369,4.959,2.369c1.34,0,2.573-0.327,3.698-0.976V22.624z"/>
<path fill="#FFFFFF" d="M306.49,4.903c1.352-1.815,3.261-2.722,5.725-2.722c2.307,0,4.137,0.927,5.49,2.78
	c1.349,1.854,2.025,4.37,2.025,7.544c0,3.532-0.677,6.203-2.025,8.019c-1.354,1.815-3.26,2.723-5.727,2.723
	c-2.306,0-4.137-0.929-5.488-2.783c-1.352-1.853-2.025-4.367-2.025-7.544C304.465,9.39,305.139,6.717,306.49,4.903 M307.453,16.011
	c0.178,0.976,0.459,1.848,0.842,2.618c0.387,0.77,0.883,1.377,1.496,1.819c0.609,0.444,1.338,0.666,2.188,0.666
	c0.71,0,1.365-0.158,1.969-0.474c0.6-0.315,1.133-0.814,1.596-1.493c0.463-0.681,0.825-1.575,1.081-2.678
	c0.256-1.105,0.385-2.427,0.385-3.965c0-1.103-0.091-2.14-0.267-3.106c-0.178-0.966-0.459-1.833-0.844-2.605
	c-0.385-0.768-0.882-1.374-1.492-1.817c-0.615-0.445-1.344-0.667-2.191-0.667c-0.711,0-1.366,0.157-1.967,0.473
	c-0.603,0.314-1.135,0.813-1.6,1.494c-0.462,0.681-0.821,1.574-1.078,2.677c-0.258,1.105-0.385,2.429-0.385,3.965
	C307.186,14.003,307.275,15.036,307.453,16.011"/>
<polygon fill="#FFFFFF" points="323.004,2.388 325.609,2.388 325.609,20.79 332.385,20.79 332.385,23.037 323.004,23.037 "/>
<path fill="#FFFFFF" d="M343.514,2.387l6.746,20.651h-2.722l-1.658-5.386h-7.868l-1.658,5.386h-2.604l6.924-20.651H343.514z
	 M345.199,15.404l-3.164-10.295h-0.063l-3.253,10.295H345.199z"/>
<path fill="#FFFFFF" d="M358.986,2.388h4.498c1.281,0,2.35,0.128,3.21,0.383c0.856,0.257,1.622,0.623,2.292,1.097
	c1.086,0.748,1.992,1.823,2.723,3.223c0.729,1.402,1.093,3.166,1.093,5.297c0,1.538-0.19,2.955-0.575,4.244
	c-0.385,1.293-1.004,2.42-1.851,3.373c-0.848,0.958-1.947,1.702-3.299,2.234c-1.351,0.533-2.972,0.798-4.866,0.798h-3.225V2.388z
	 M361.592,20.79h1.564c2.25,0,3.965-0.729,5.149-2.189s1.774-3.531,1.774-6.212c0-1.124-0.127-2.155-0.385-3.092
	c-0.256-0.936-0.656-1.751-1.197-2.441c-0.541-0.689-1.258-1.234-2.145-1.627c-0.888-0.395-1.953-0.591-3.197-0.591h-1.564V20.79z"
	/>
<polygon fill="#FFFFFF" points="375.819,2.388 385.433,2.388 385.433,4.636 378.422,4.636 378.422,11.205 385.107,11.205 
	385.107,13.453 378.422,13.453 378.422,20.79 385.817,20.79 385.817,23.037 375.819,23.037 "/>
<path fill="#FFFFFF" d="M276.822,51.336c-1.34,0.414-2.593,0.62-3.758,0.62c-1.578,0-2.957-0.276-4.141-0.826
	c-1.185-0.555-2.154-1.317-2.913-2.295c-0.761-0.976-1.321-2.1-1.688-3.372c-0.363-1.271-0.545-2.627-0.545-4.069
	c0-1.577,0.219-3.018,0.663-4.319c0.445-1.301,1.071-2.413,1.879-3.342c0.81-0.929,1.775-1.633,2.901-2.115
	c1.123-0.482,2.355-0.725,3.699-0.725c0.748,0,1.466,0.063,2.158,0.191c0.688,0.13,1.271,0.311,1.744,0.548v2.543
	c-1.085-0.689-2.374-1.034-3.875-1.034c-0.846,0-1.66,0.169-2.441,0.504c-0.779,0.333-1.469,0.832-2.069,1.492
	c-0.604,0.662-1.077,1.474-1.421,2.44c-0.344,0.968-0.517,2.063-0.517,3.287c0,2.739,0.556,4.898,1.669,6.476
	c1.115,1.582,2.768,2.37,4.959,2.37c1.34,0,2.573-0.327,3.695-0.977V51.336z"/>
<path fill="#FFFFFF" d="M280.601,33.615c1.349-1.814,3.261-2.721,5.725-2.721c2.308,0,4.136,0.925,5.489,2.779
	c1.35,1.853,2.026,4.371,2.026,7.546c0,3.53-0.677,6.202-2.026,8.017c-1.354,1.814-3.26,2.723-5.727,2.723
	c-2.307,0-4.139-0.928-5.487-2.782c-1.351-1.854-2.025-4.369-2.025-7.545C278.575,38.102,279.25,35.429,280.601,33.615
	 M281.563,44.723c0.178,0.978,0.459,1.85,0.842,2.617c0.387,0.772,0.885,1.378,1.495,1.822c0.611,0.443,1.341,0.665,2.188,0.665
	c0.711,0,1.367-0.158,1.969-0.475c0.602-0.314,1.134-0.813,1.598-1.492c0.463-0.681,0.822-1.575,1.078-2.679
	c0.258-1.104,0.387-2.425,0.387-3.963c0-1.104-0.091-2.143-0.267-3.107c-0.178-0.966-0.461-1.833-0.844-2.605
	c-0.385-0.768-0.884-1.374-1.493-1.817c-0.613-0.444-1.342-0.667-2.19-0.667c-0.71,0-1.366,0.157-1.967,0.475
	c-0.603,0.314-1.136,0.813-1.599,1.492c-0.462,0.683-0.824,1.576-1.078,2.679c-0.258,1.104-0.385,2.428-0.385,3.964
	C281.297,42.717,281.383,43.748,281.563,44.723"/>
<polygon fill="#FFFFFF" points="297.114,31.1 301.139,31.1 306.316,47.52 306.377,47.52 311.672,31.1 315.577,31.1 315.577,51.75 
	313.092,51.75 313.092,33.94 313.033,33.94 307.176,51.75 305.281,51.75 299.66,33.94 299.599,33.94 299.599,51.75 297.114,51.75 
	"/>
<path fill="#FFFFFF" d="M332.594,44.145c0,1.088-0.053,1.955-0.163,2.605c-0.107,0.651-0.329,1.322-0.664,2.013
	c-0.474,0.947-1.187,1.715-2.132,2.308c-0.945,0.592-2.121,0.886-3.521,0.886s-2.573-0.294-3.521-0.886
	c-0.945-0.593-1.656-1.36-2.13-2.308c-0.334-0.69-0.556-1.361-0.666-2.013c-0.108-0.65-0.163-1.518-0.163-2.605V31.1h2.604v13.432
	c0,1.636,0.34,2.93,1.021,3.876c0.679,0.946,1.633,1.42,2.854,1.42c1.224,0,2.177-0.474,2.854-1.42
	c0.684-0.946,1.021-2.24,1.021-3.876V31.1h2.604V44.145z"/>
<polygon fill="#FFFFFF" points="336.654,31.1 339.879,31.1 347.658,48.142 347.718,48.142 347.718,31.1 350.202,31.1 350.202,51.75 
	346.979,51.75 339.195,34.827 339.139,34.827 339.139,51.75 336.654,51.75 "/>
<rect x="354.277" y="31.1" fill="#FFFFFF" width="2.6" height="20.65"/>
<path fill="#FFFFFF" d="M373.145,51.336c-1.344,0.414-2.596,0.62-3.76,0.62c-1.576,0-2.959-0.276-4.139-0.826
	c-1.185-0.555-2.154-1.317-2.916-2.295c-0.76-0.976-1.322-2.1-1.688-3.372c-0.363-1.271-0.546-2.627-0.546-4.069
	c0-1.577,0.222-3.018,0.666-4.319c0.442-1.301,1.068-2.413,1.878-3.342c0.809-0.929,1.776-1.633,2.899-2.115
	c1.125-0.482,2.355-0.725,3.698-0.725c0.748,0,1.47,0.063,2.161,0.191c0.689,0.13,1.272,0.311,1.745,0.548v2.543
	c-1.085-0.689-2.377-1.034-3.879-1.034c-0.846,0-1.66,0.169-2.439,0.504c-0.777,0.333-1.469,0.832-2.068,1.492
	c-0.605,0.662-1.076,1.474-1.422,2.44c-0.344,0.968-0.518,2.063-0.518,3.287c0,2.739,0.559,4.898,1.67,6.476
	c1.117,1.582,2.77,2.37,4.957,2.37c1.341,0,2.576-0.327,3.699-0.977V51.336z"/>
<path fill="#FFFFFF" d="M384.783,31.1l6.746,20.651h-2.722l-1.658-5.386h-7.87l-1.656,5.386h-2.604l6.924-20.651H384.783z
	 M386.471,44.117l-3.168-10.295h-0.059l-3.255,10.295H386.471z"/>
<path fill="#FFFFFF" d="M405.232,51.336c-1.342,0.414-2.596,0.62-3.758,0.62c-0.355,0-0.611-0.01-0.768-0.028l-1.096,1.598
	c0.275-0.062,0.563-0.089,0.858-0.089c0.708,0,1.307,0.193,1.786,0.577c0.484,0.386,0.729,0.901,0.729,1.553
	c0,0.751-0.311,1.365-0.934,1.848c-0.621,0.484-1.484,0.727-2.588,0.727c-0.474,0-0.937-0.056-1.391-0.163
	c-0.453-0.108-0.859-0.233-1.213-0.371l0.413-1.035c0.317,0.12,0.641,0.214,0.979,0.283c0.334,0.068,0.63,0.104,0.886,0.104
	c0.512,0,0.929-0.124,1.241-0.37c0.316-0.248,0.476-0.539,0.476-0.875c0-0.728-0.436-1.092-1.303-1.092
	c-0.516,0-0.937,0.067-1.272,0.207l-0.444-0.563l1.657-2.485c-1.24-0.237-2.328-0.67-3.256-1.301
	c-0.926-0.632-1.689-1.417-2.291-2.352c-0.604-0.938-1.046-1.979-1.332-3.123c-0.287-1.143-0.429-2.348-0.429-3.61
	c0-1.577,0.222-3.018,0.666-4.319c0.442-1.301,1.067-2.413,1.878-3.342c0.81-0.929,1.776-1.633,2.901-2.115
	c1.122-0.482,2.354-0.725,3.698-0.725c0.748,0,1.468,0.063,2.159,0.191c0.689,0.13,1.269,0.311,1.745,0.548v2.543
	c-1.086-0.689-2.377-1.034-3.877-1.034c-0.848,0-1.66,0.169-2.439,0.504c-0.779,0.333-1.473,0.832-2.07,1.492
	c-0.604,0.662-1.076,1.474-1.422,2.44c-0.344,0.968-0.518,2.063-0.518,3.287c0,2.739,0.559,4.898,1.67,6.476
	c1.115,1.582,2.77,2.37,4.957,2.37c1.341,0,2.574-0.327,3.699-0.977V51.336z"/>
<path fill="#FFFFFF" d="M416.871,31.1l6.746,20.651h-2.723l-1.655-5.386h-7.87l-1.658,5.386h-2.604l6.924-20.651H416.871z
	 M419.68,26.249c-0.176,1.024-0.469,1.809-0.871,2.35c-0.404,0.544-0.952,0.814-1.644,0.814c-0.255,0-0.53-0.044-0.827-0.133
	c-0.296-0.089-0.699-0.252-1.214-0.486c-0.433-0.218-0.733-0.357-0.903-0.417c-0.166-0.058-0.327-0.088-0.486-0.088
	c-0.295,0-0.551,0.104-0.77,0.31c-0.217,0.21-0.344,0.53-0.386,0.963h-1.538c0.218-2.108,1.156-3.167,2.813-3.167
	c0.275,0,0.577,0.056,0.902,0.164c0.324,0.107,0.772,0.302,1.346,0.577c0.296,0.138,0.518,0.237,0.666,0.296
	c0.148,0.06,0.271,0.087,0.369,0.087c0.491,0,0.828-0.423,1.005-1.27H419.68z M418.557,44.117l-3.166-10.295h-0.057l-3.255,10.295
	H418.557z"/>
<path fill="#FFFFFF" d="M426.406,33.615c1.352-1.814,3.258-2.721,5.725-2.721c2.307,0,4.136,0.925,5.486,2.779
	c1.354,1.853,2.028,4.371,2.028,7.546c0,3.53-0.675,6.202-2.028,8.017c-1.351,1.814-3.258,2.723-5.724,2.723
	c-2.308,0-4.136-0.928-5.487-2.782c-1.352-1.854-2.026-4.369-2.026-7.545C424.38,38.102,425.055,35.429,426.406,33.615
	 M427.368,44.723c0.178,0.978,0.459,1.85,0.841,2.617c0.386,0.772,0.885,1.378,1.496,1.822c0.611,0.443,1.34,0.665,2.188,0.665
	c0.71,0,1.364-0.158,1.969-0.475c0.601-0.314,1.134-0.813,1.597-1.492c0.463-0.681,0.824-1.575,1.08-2.679
	c0.256-1.104,0.385-2.425,0.385-3.963c0-1.104-0.091-2.143-0.266-3.107c-0.18-0.966-0.459-1.833-0.844-2.605
	c-0.383-0.768-0.883-1.374-1.496-1.817c-0.61-0.444-1.34-0.667-2.188-0.667c-0.709,0-1.367,0.157-1.967,0.475
	c-0.605,0.314-1.137,0.813-1.598,1.492c-0.465,0.683-0.824,1.576-1.08,2.679c-0.258,1.104-0.385,2.428-0.385,3.964
	C427.102,42.717,427.19,43.748,427.368,44.723"/>
<polygon fill="#FFFFFF" points="264.633,59.813 274.25,59.813 274.25,62.061 267.236,62.061 267.236,68.631 273.923,68.631 
	273.923,70.878 267.236,70.878 267.236,78.214 274.633,78.214 274.633,80.464 264.633,80.464 "/>
<path fill="#FFFFFF" d="M284.545,59.813h4.498c1.281,0,2.352,0.129,3.207,0.383c0.859,0.258,1.625,0.622,2.295,1.096
	c1.084,0.75,1.992,1.826,2.721,3.225c0.73,1.401,1.096,3.168,1.096,5.297c0,1.537-0.191,2.952-0.577,4.246
	c-0.385,1.29-1.002,2.417-1.851,3.371c-0.848,0.958-1.947,1.702-3.299,2.233c-1.351,0.534-2.971,0.799-4.865,0.799h-3.225V59.813z
	 M287.148,78.214h1.566c2.25,0,3.965-0.729,5.148-2.188c1.185-1.461,1.775-3.531,1.775-6.213c0-1.125-0.127-2.154-0.385-3.094
	c-0.257-0.935-0.656-1.749-1.197-2.44c-0.541-0.689-1.259-1.23-2.146-1.626c-0.887-0.394-1.952-0.592-3.195-0.592h-1.566V78.214z"/>
<polygon fill="#FFFFFF" points="301.375,59.813 310.99,59.813 310.99,62.061 303.979,62.061 303.979,68.631 310.664,68.631 
	310.664,70.878 303.979,70.878 303.979,78.214 311.375,78.214 311.375,80.464 301.375,80.464 "/>
<path fill="#FFFFFF" d="M323.184,62.801c-0.492-0.297-1.047-0.529-1.656-0.696c-0.613-0.167-1.232-0.249-1.865-0.249
	c-0.967,0-1.744,0.289-2.338,0.871c-0.59,0.581-0.887,1.315-0.887,2.203c0,0.355,0.045,0.673,0.133,0.947
	c0.09,0.277,0.256,0.557,0.504,0.844c0.245,0.286,0.601,0.597,1.066,0.933c0.461,0.334,1.059,0.719,1.789,1.152
	c1.558,0.889,2.657,1.804,3.296,2.752c0.644,0.947,0.962,2.032,0.962,3.254c0,1.717-0.521,3.121-1.567,4.217
	s-2.527,1.641-4.438,1.641c-0.807,0-1.586-0.078-2.336-0.234c-0.751-0.158-1.41-0.377-1.983-0.651v-2.694
	c0.632,0.377,1.302,0.691,2.015,0.95c0.707,0.256,1.35,0.382,1.923,0.382c1.122,0,2.015-0.321,2.677-0.96
	c0.66-0.641,0.99-1.406,0.99-2.294c0-0.434-0.039-0.814-0.119-1.14c-0.078-0.326-0.227-0.641-0.443-0.945
	c-0.217-0.307-0.537-0.633-0.961-0.978c-0.422-0.345-0.98-0.725-1.672-1.138c-0.967-0.572-1.736-1.091-2.308-1.556
	c-0.573-0.461-1.025-0.92-1.362-1.373c-0.334-0.454-0.566-0.937-0.695-1.45c-0.127-0.514-0.189-1.114-0.189-1.806
	c0-1.637,0.541-2.908,1.625-3.817c1.086-0.905,2.458-1.361,4.113-1.361c0.651,0,1.314,0.066,1.996,0.194
	c0.682,0.129,1.259,0.292,1.732,0.486V62.801z"/>
<rect x="327.143" y="59.813" fill="#FFFFFF" width="2.605" height="20.651"/>
<path fill="#FFFFFF" d="M347.364,79.606c-0.79,0.275-1.637,0.522-2.542,0.74c-0.91,0.216-1.767,0.323-2.575,0.323
	c-1.579,0-2.958-0.274-4.143-0.826c-1.185-0.553-2.155-1.317-2.916-2.293c-0.757-0.979-1.319-2.102-1.684-3.372
	c-0.366-1.273-0.548-2.629-0.548-4.069c0-1.577,0.223-3.02,0.666-4.32c0.442-1.303,1.068-2.417,1.879-3.345
	c0.809-0.925,1.773-1.629,2.9-2.113c1.123-0.483,2.354-0.727,3.697-0.727c1.951,0,3.568,0.309,4.851,0.92v2.603
	c-0.789-0.396-1.601-0.706-2.44-0.933c-0.838-0.227-1.634-0.338-2.381-0.338c-0.848,0-1.66,0.167-2.44,0.501
	c-0.78,0.336-1.472,0.833-2.072,1.495s-1.075,1.474-1.419,2.44c-0.345,0.966-0.519,2.06-0.519,3.284c0,2.74,0.557,4.901,1.671,6.479
	c1.114,1.578,2.766,2.366,4.957,2.366c0.414,0,0.862-0.048,1.345-0.147c0.483-0.098,0.894-0.234,1.229-0.412V71.35h-3.462V69.1
	h5.946V79.606z"/>
<polygon fill="#FFFFFF" points="351.351,59.813 354.575,59.813 362.357,76.855 362.416,76.855 362.416,59.813 364.899,59.813 
	364.899,80.464 361.676,80.464 353.895,63.539 353.836,63.539 353.836,80.464 351.351,80.464 "/>
<path fill="#FFFFFF" d="M375.669,59.813h4.498c1.281,0,2.352,0.129,3.21,0.383c0.858,0.258,1.622,0.622,2.293,1.096
	c1.084,0.75,1.991,1.826,2.723,3.225c0.728,1.401,1.093,3.168,1.093,5.297c0,1.537-0.191,2.952-0.577,4.246
	c-0.385,1.29-1.003,2.417-1.85,3.371c-0.846,0.958-1.947,1.702-3.299,2.233c-1.35,0.534-2.971,0.799-4.863,0.799h-3.228V59.813z
	 M378.274,78.214h1.565c2.252,0,3.967-0.729,5.148-2.188c1.184-1.461,1.774-3.531,1.774-6.213c0-1.125-0.127-2.154-0.386-3.094
	c-0.256-0.935-0.652-1.749-1.196-2.44c-0.541-0.689-1.259-1.23-2.144-1.626c-0.889-0.394-1.955-0.592-3.197-0.592h-1.565V78.214z"/>
<rect x="392.542" y="59.813" fill="#FFFFFF" width="2.603" height="20.651"/>
<path fill="#FFFFFF" d="M412.764,79.606c-0.788,0.275-1.639,0.522-2.545,0.74c-0.908,0.216-1.764,0.323-2.574,0.323
	c-1.577,0-2.961-0.274-4.141-0.826c-1.184-0.553-2.154-1.317-2.916-2.293c-0.759-0.979-1.321-2.102-1.688-3.372
	c-0.363-1.273-0.545-2.629-0.545-4.069c0-1.577,0.222-3.02,0.666-4.32c0.441-1.303,1.067-2.417,1.877-3.345
	c0.811-0.925,1.777-1.629,2.9-2.113c1.122-0.483,2.357-0.727,3.697-0.727c1.951,0,3.57,0.309,4.852,0.92v2.603
	c-0.789-0.396-1.601-0.706-2.44-0.933c-0.837-0.227-1.63-0.338-2.381-0.338c-0.849,0-1.662,0.167-2.442,0.501
	c-0.776,0.336-1.468,0.833-2.068,1.495c-0.605,0.662-1.076,1.474-1.421,2.44c-0.345,0.966-0.519,2.06-0.519,3.284
	c0,2.74,0.559,4.901,1.671,6.479c1.116,1.578,2.769,2.366,4.957,2.366c0.414,0,0.862-0.048,1.345-0.147
	c0.484-0.098,0.895-0.234,1.23-0.412V71.35h-3.461V69.1h5.945V79.606z"/>
<rect x="416.775" y="59.813" fill="#FFFFFF" width="2.604" height="20.651"/>
<polygon fill="#FFFFFF" points="426.541,62.061 421.807,62.061 421.807,59.813 433.879,59.813 433.879,62.061 429.145,62.061 
	429.145,80.464 426.541,80.464 "/>
<path fill="#FFFFFF" d="M442.661,59.813l6.745,20.651h-2.721l-1.656-5.386h-7.871l-1.655,5.386h-2.604l6.923-20.651H442.661z
	 M444.349,72.831l-3.165-10.296h-0.06l-3.255,10.296H444.349z"/>
<polygon fill="#FFFFFF" points="451.705,59.813 454.309,59.813 454.309,78.214 461.084,78.214 461.084,80.464 451.705,80.464 "/>
<rect x="264.796" y="96.21" fill="#FFFFFF" width="2.54" height="20.138"/>
<polygon fill="#FFFFFF" points="271.316,96.212 274.46,96.212 282.047,112.83 282.105,112.83 282.105,96.212 284.529,96.212 
	284.529,116.348 281.387,116.348 273.796,99.847 273.738,99.847 273.738,116.348 271.316,116.348 "/>
<path fill="#FFFFFF" d="M296.871,99.126c-0.48-0.29-1.02-0.516-1.615-0.677c-0.597-0.165-1.201-0.247-1.819-0.247
	c-0.94,0-1.7,0.283-2.277,0.852c-0.577,0.567-0.864,1.284-0.864,2.148c0,0.347,0.041,0.653,0.129,0.925
	c0.086,0.269,0.249,0.543,0.49,0.82c0.24,0.281,0.588,0.581,1.038,0.911c0.452,0.326,1.032,0.702,1.747,1.123
	c1.518,0.867,2.59,1.762,3.217,2.684c0.623,0.922,0.938,1.983,0.938,3.174c0,1.673-0.512,3.043-1.53,4.111
	c-1.017,1.067-2.462,1.601-4.327,1.601c-0.788,0-1.549-0.078-2.279-0.23c-0.731-0.152-1.374-0.366-1.933-0.635v-2.626
	c0.615,0.368,1.271,0.675,1.962,0.924c0.691,0.252,1.318,0.376,1.877,0.376c1.095,0,1.964-0.313,2.607-0.938
	c0.646-0.626,0.968-1.37,0.968-2.235c0-0.425-0.038-0.793-0.114-1.112c-0.076-0.314-0.225-0.624-0.434-0.924
	c-0.211-0.296-0.524-0.613-0.937-0.949c-0.415-0.337-0.958-0.707-1.63-1.11c-0.943-0.559-1.694-1.063-2.253-1.517
	c-0.556-0.452-1-0.898-1.325-1.341c-0.328-0.441-0.555-0.913-0.68-1.414c-0.125-0.499-0.186-1.087-0.186-1.76
	c0-1.597,0.528-2.836,1.586-3.722c1.057-0.886,2.396-1.326,4.012-1.326c0.634,0,1.281,0.063,1.945,0.188
	c0.664,0.123,1.227,0.283,1.688,0.474V99.126z"/>
<polygon fill="#FFFFFF" points="303.89,98.406 299.273,98.406 299.273,96.212 311.045,96.212 311.045,98.406 306.43,98.406 
	306.43,116.348 303.89,116.348 "/>
<rect x="313.436" y="96.21" fill="#FFFFFF" width="2.538" height="20.138"/>
<polygon fill="#FFFFFF" points="322.961,98.406 318.346,98.406 318.346,96.212 330.117,96.212 330.117,98.406 325.501,98.406 
	325.501,116.348 322.961,116.348 "/>
<path fill="#FFFFFF" d="M345.143,108.936c0,1.056-0.053,1.903-0.159,2.538c-0.105,0.634-0.323,1.29-0.649,1.962
	c-0.461,0.922-1.152,1.673-2.076,2.25s-2.068,0.865-3.435,0.865s-2.508-0.288-3.432-0.865c-0.925-0.577-1.618-1.328-2.079-2.25
	c-0.328-0.672-0.543-1.328-0.648-1.962c-0.104-0.635-0.157-1.482-0.157-2.538V96.212h2.538v13.098c0,1.597,0.332,2.857,0.996,3.779
	c0.664,0.924,1.591,1.385,2.782,1.385c1.192,0,2.121-0.461,2.785-1.385c0.664-0.922,0.996-2.183,0.996-3.779V96.212h2.538V108.936z"
	/>
<polygon fill="#FFFFFF" points="352.148,98.406 347.531,98.406 347.531,96.212 359.304,96.212 359.304,98.406 354.686,98.406 
	354.686,116.348 352.148,116.348 "/>
<path fill="#FFFFFF" d="M362.292,98.666c1.315-1.771,3.176-2.654,5.581-2.654c2.25,0,4.034,0.903,5.352,2.711
	c1.317,1.809,1.977,4.262,1.977,7.357c0,3.444-0.659,6.05-1.977,7.817c-1.317,1.771-3.178,2.654-5.582,2.654
	c-2.25,0-4.035-0.903-5.351-2.711c-1.319-1.809-1.979-4.259-1.979-7.357C360.313,103.041,360.973,100.435,362.292,98.666
	 M363.229,109.497c0.174,0.951,0.446,1.804,0.822,2.555c0.375,0.751,0.859,1.341,1.457,1.776c0.595,0.432,1.309,0.646,2.135,0.646
	c0.691,0,1.332-0.154,1.918-0.463c0.588-0.307,1.105-0.793,1.558-1.455c0.452-0.664,0.804-1.533,1.054-2.611
	c0.251-1.076,0.376-2.366,0.376-3.865c0-1.079-0.089-2.087-0.263-3.03c-0.173-0.941-0.447-1.789-0.82-2.538
	c-0.376-0.75-0.86-1.343-1.457-1.774c-0.596-0.433-1.309-0.648-2.135-0.648c-0.694,0-1.333,0.154-1.918,0.461
	c-0.588,0.307-1.106,0.793-1.559,1.457c-0.453,0.664-0.805,1.533-1.054,2.611c-0.251,1.076-0.374,2.366-0.374,3.865
	C362.969,107.541,363.055,108.547,363.229,109.497"/>
<rect x="385.153" y="96.21" fill="#FFFFFF" width="2.54" height="20.138"/>
<polygon fill="#FFFFFF" points="391.673,96.212 394.819,96.212 402.406,112.83 402.464,112.83 402.464,96.212 404.885,96.212 
	404.885,116.348 401.742,116.348 394.153,99.847 394.096,99.847 394.096,116.348 391.673,116.348 "/>
<polygon fill="#FFFFFF" points="408.877,96.212 417.879,96.212 417.879,98.406 411.415,98.406 411.415,104.811 417.561,104.811 
	417.561,107.003 411.415,107.003 411.415,116.348 408.877,116.348 "/>
<polygon fill="#FFFFFF" points="420.537,96.212 423.682,96.212 431.27,112.83 431.328,112.83 431.328,96.212 433.752,96.212 
	433.752,116.348 430.607,116.348 423.018,99.847 422.961,99.847 422.961,116.348 420.537,116.348 "/>
<polygon fill="#FFFFFF" points="437.742,96.212 447.119,96.212 447.119,98.406 440.28,98.406 440.28,104.811 446.799,104.811 
	446.799,107.003 440.28,107.003 440.28,114.158 447.491,114.158 447.491,116.348 437.742,116.348 "/>
<polygon fill="#FFFFFF" points="453.884,98.406 449.268,98.406 449.268,96.212 461.037,96.212 461.037,98.406 456.422,98.406 
	456.422,116.348 453.884,116.348 "/>
<rect x="264.328" y="87.758" fill="#FFFFFF" width="196.699" height="1.613"/>
</svg>
